<svg width="100" height="100" viewBox="0 0 100 100" fill="none" xmlns="http://www.w3.org/2000/svg">
<g clip-path="url(#clip0_1007_98)">
<path d="M50.0585 8.98433C58.5831 19.7863 63.1337 33.1069 62.9687 46.7756V50.0384L65.7812 51.7466C69.4151 53.9424 72.1253 57.3481 73.4179 61.3431C72.283 60.5091 71.0958 59.7463 69.8632 59.0591L62.3632 54.8559L61.0156 63.3392C60.8988 64.0888 60.7424 64.832 60.5468 65.5656H39.5312C39.2187 64.606 38.9648 63.6463 38.7304 62.6483L37.0312 54.971L30.1171 58.8096C28.962 59.4544 27.8468 60.1658 26.7773 60.9401C28.095 56.9912 30.7486 53.6046 34.2968 51.3435L36.9726 49.6353V46.6028C37.0209 32.9897 41.6262 19.7704 50.0781 8.98433H50.0585ZM50.0781 1C49.6397 1.00106 49.2166 1.15785 48.8867 1.44144L48.7109 1.59499C37.4483 13.9731 31.1943 29.9792 31.1327 46.5836C26.3534 49.6307 22.8157 54.2313 21.1378 59.5814C19.4599 64.9315 19.7484 70.6909 21.9531 75.8531C24.2755 70.8127 28.1579 66.6214 33.0468 63.8766C33.5371 65.9637 34.1901 68.0106 34.9999 69.9992C35.1026 70.3815 35.3303 70.72 35.6479 70.9628C35.9655 71.2055 36.3554 71.339 36.7577 71.3427H63.8671C64.414 71.3427 64.9609 70.8245 65.2343 70.0184C66.0247 68.1278 66.5757 66.1488 66.8749 64.1261C71.7732 66.8594 75.6587 71.0541 77.9687 76.1026C80.3063 70.9658 80.6683 65.1701 78.9873 59.7909C77.3063 54.4118 73.6966 49.8145 68.8281 46.8523C69.0212 30.15 62.8004 13.9899 51.4062 1.59499C51.2365 1.40856 51.0289 1.25926 50.7967 1.15676C50.5645 1.05427 50.313 1.00086 50.0585 1H50.0781Z" fill="#4EA8DE"/>
<path d="M50.0586 44.9906C48.5584 44.9905 47.0919 44.5541 45.8437 43.7362C44.5956 42.9183 43.6218 41.7557 43.0451 40.3948C42.4683 39.0339 42.3145 37.5356 42.6029 36.0889C42.8914 34.6423 43.6092 33.3119 44.6659 32.2654C45.7226 31.219 47.0709 30.5035 48.5408 30.2089C50.0107 29.9143 51.5365 30.054 52.9257 30.6103C54.315 31.1666 55.5056 32.1145 56.3474 33.3347C57.1893 34.5549 57.6447 35.9927 57.6563 37.4669V37.4669C57.6796 38.4222 57.5112 39.3727 57.1606 40.2641C56.8101 41.1554 56.2842 41.9701 55.6131 42.6617C54.942 43.3533 54.1388 43.9081 53.2494 44.2945C52.36 44.681 51.4019 44.8914 50.4297 44.9138C50.3068 44.9332 50.1815 44.9332 50.0586 44.9138V44.9906Z" fill="#4EA8DE"/>
<path d="M60.625 76.1218C60.1363 76.1064 59.6494 76.1872 59.1929 76.3592C58.7363 76.5312 58.3194 76.7911 57.9664 77.1237C57.6135 77.4562 57.3317 77.8546 57.1376 78.2956C56.9434 78.7366 56.8409 79.2113 56.8359 79.6917V91.0157C56.8359 92.0032 57.2351 92.9503 57.9457 93.6485C58.6563 94.3468 59.6201 94.7391 60.625 94.7391C61.6299 94.7391 62.5937 94.3468 63.3043 93.6485C64.0149 92.9503 64.4141 92.0032 64.4141 91.0157V79.8453C64.4297 79.3666 64.3482 78.8897 64.1743 78.4423C64.0004 77.995 63.7377 77.5861 63.4014 77.2395C63.0651 76.8929 62.6619 76.6156 62.2154 76.4237C61.7689 76.2318 61.288 76.1292 60.8008 76.1218H60.625Z" fill="#5E60CE"/>
<path d="M39.5312 76.1218C39.0343 76.096 38.537 76.1687 38.0692 76.3355C37.6014 76.5024 37.1725 76.76 36.808 77.0931C36.4436 77.4261 36.151 77.8278 35.9478 78.2743C35.7446 78.7207 35.6348 79.2028 35.625 79.6917V91.0157C35.625 92.0032 36.0242 92.9503 36.7348 93.6486C37.4454 94.3468 38.4091 94.7391 39.4141 94.7391C40.419 94.7391 41.3827 94.3468 42.0933 93.6486C42.8039 92.9503 43.2031 92.0032 43.2031 91.0157V79.8453C43.2187 79.3666 43.1372 78.8897 42.9634 78.4424C42.7895 77.995 42.5268 77.5861 42.1904 77.2395C41.8541 76.893 41.451 76.6156 41.0045 76.4237C40.558 76.2319 40.0771 76.1292 39.5898 76.1218H39.5312Z" fill="#5E60CE"/>
<path d="M49.7852 76.1218C49.2978 76.1116 48.8132 76.1959 48.359 76.3698C47.9048 76.5437 47.4899 76.8039 47.138 77.1354C46.7861 77.4669 46.5042 77.8633 46.3083 78.3019C46.1123 78.7406 46.0062 79.2128 45.9961 79.6917V95.2957C45.9961 96.2833 46.3953 97.2303 47.1059 97.9286C47.8165 98.6269 48.7802 99.0192 49.7852 99.0192C50.7901 99.0192 51.7538 98.6269 52.4644 97.9286C53.175 97.2303 53.5742 96.2833 53.5742 95.2957V79.9413C53.5898 79.4626 53.5083 78.9857 53.3345 78.5383C53.1606 78.091 52.8979 77.6821 52.5615 77.3355C52.2252 76.9889 51.8221 76.7116 51.3756 76.5197C50.9291 76.3278 50.4482 76.2252 49.9609 76.2178L49.7852 76.1218Z" fill="#5E60CE"/>
</g>
<defs>
<clipPath id="clip0_1007_98">
<rect width="60" height="98" fill="white" transform="translate(20 1)"/>
</clipPath>
</defs>
</svg>
